<?xml version="1.0" encoding="utf-8" standalone="yes"?>
<!DOCTYPE svg PUBLIC "-//W3C//DTD SVG 1.1//EN" "http://www.w3.org/Graphics/SVG/1.1/DTD/svg11.dtd">
<svg width="888" height="687" viewBox="0 0 888 687" style="fill:none;stroke:none;fill-rule:evenodd;clip-rule:evenodd;stroke-linecap:round;stroke-linejoin:round;stroke-miterlimit:1.5;" version="1.1" xmlns="http://www.w3.org/2000/svg" xmlns:xlink="http://www.w3.org/1999/xlink"><style class="text-font-style fontImports" data-font-family="Shantell Sans">@import url(https://fonts.googleapis.com/css2?family=Shantell+Sans:wght@300..800&amp;amp;display=block);</style><g id="items" style="isolation: isolate"><g id="blend" style="mix-blend-mode: normal"><g id="g-root-cp_6_g-6_1qbc8tp1pnn6yy-fill" data-item-order="-495590" transform="translate(434, 416.0001220703125)"><g id="cp_6_g-6_1qbc8tp1pnn6yy-fill" stroke="none" fill="#ffe4cb"><g><path d="M 10 10.000008L 105 10C 174.036 9.999991 226 60.9644 226 130L 250 130L 178 209.5L 106 130L 130 130C 130 116.193 118.807 106.0001 105 106L 10.000015 106L 10 10.000008Z"></path></g></g></g><g id="g-root-cp_5_g-5_1lw57sd1pnn4lg-fill" data-item-order="-495586" transform="translate(218, 392.0001220703125)"><g id="cp_5_g-5_1lw57sd1pnn4lg-fill" stroke="none" fill="#fff8b6"><g><path d="M 226 130L 131 130C 61.9645 130 10.000006 79.0356 10 10.000016L 106.0001 10C 106.0001 23.8071 117.193 33.9999 131 34L 226 34L 226 130Z"></path></g></g></g><g id="g-root-cp_4_g-4_1lw57sd1pnn4li-fill" data-item-order="-495582" transform="translate(218, 272)"><g id="cp_4_g-4_1lw57sd1pnn4li-fill" stroke="none" fill="#e9ffb9"><g><path d="M 226 10.000008L 131 10C 61.9645 9.999991 10.000006 60.9644 10 130L 106.0001 130C 106.0001 116.193 117.193 106.0001 131 106L 226 106L 226 10.000008Z"></path></g></g></g><g id="g-root-cp_3_g-3_1lw57sd1pnn4lk-fill" data-item-order="-495578" transform="translate(434, 248)"><g id="cp_3_g-3_1lw57sd1pnn4lk-fill" stroke="none" fill="#c8ffe5"><g><path d="M 10 130L 105 130C 174.036 130 226 79.0356 226 10.000008L 130 10C 130 23.8071 118.807 33.9999 105 34L 10 34L 10 130Z"></path></g></g></g><g id="g-root-cp_2_g-2_1hgbpnx1pnn5du-fill" data-item-order="-495574" transform="translate(434, 128)"><g id="cp_2_g-2_1hgbpnx1pnn5du-fill" stroke="none" fill="#d1f4ff"><g><path d="M 10 10L 105 10C 174.036 9.999997 226 60.9644 226 130L 130 130C 130 116.193 118.807 106.0001 105 106L 10 106L 10 10Z"></path></g></g></g><g id="g-root-cp_1_g-1_1hgbpnx1pnn5dw-fill" data-item-order="-495570" transform="translate(218, 128)"><g id="cp_1_g-1_1hgbpnx1pnn5dw-fill" stroke="none" fill="#dce9ff"><g><path d="M 10 10L 226 10L 226 106L 10 106L 10 10Z"></path></g></g></g><g id="g-root-ic_soil_dfgdd91pnpyx6-fill" data-item-order="-3600" transform="translate(512, 434.0001220703125)"><g id="ic_soil_dfgdd91pnpyx6-fill" stroke="none" fill="#de8431"><g><path d="M 15.4925 26.615C 15.500673 25.274561 16.58457 24.18955 17.924999 24.18L 46.157501 24.18C 47.498909 24.188189 48.584312 25.273592 48.592499 26.615L 48.592499 29.047501C 48.592087 30.391224 49.681274 31.480747 51.025002 31.480747C 52.368721 31.480747 53.457909 30.391224 53.457497 29.047499L 53.457497 26.615C 53.449249 22.586744 50.185757 19.323252 46.157501 19.315001L 17.924999 19.315001C 13.896745 19.323252 10.633252 22.586744 10.625 26.615002L 10.625 53.385002C 10.633252 57.413258 13.896745 60.67675 17.924999 60.685001L 46.157501 60.685001C 50.185757 60.67675 53.449249 57.413258 53.457504 53.385002L 53.457497 50.952499C 53.457909 49.608772 52.368721 48.519253 51.025002 48.519253C 49.681274 48.519253 48.592087 49.608772 48.592499 50.952496L 48.592499 53.385002C 48.584312 54.72641 47.498909 55.81181 46.157501 55.820004L 17.924999 55.82C 16.58457 55.810452 15.500673 54.725441 15.4925 53.385002L 15.4925 26.615ZM 61.332504 31.192501C 60.630516 30.512474 59.58971 30.318621 58.689987 30.700323C 57.790257 31.082024 57.206348 31.965153 57.207497 32.942497L 57.207497 37.567501L 23.129999 37.567501C 21.816233 37.609612 20.773012 38.686806 20.773012 40.001251C 20.773012 41.315693 21.816233 42.392887 23.129999 42.435001L 57.205002 42.435001L 57.205002 47.544998C 57.20631 48.535946 57.808006 49.427258 58.726597 49.798973C 59.645187 50.170692 60.697407 49.948662 61.387501 49.237499L 68.6875 41.692501C 69.621994 40.725903 69.596252 39.184845 68.629997 38.25L 61.329998 31.192501Z"></path></g></g></g><g id="g-root-ic_scal_1luwcrx1pnerk6-fill" data-item-order="-3600" transform="translate(296, 434.0001220703125)"><g id="ic_scal_1luwcrx1pnerk6-fill" stroke="none" fill="#e0cb15"><g><path d="M 27.025 44.075001L 45 26.200001C 45.109333 26.082432 45.26458 26.018507 45.424999 26.025C 45.592884 26.017742 45.756123 26.081223 45.875 26.199999L 48.099998 28.4C 48.561577 28.871037 49.190575 29.140608 49.849998 29.15C 50.073528 29.186398 50.301472 29.186398 50.524998 29.15C 51.389141 28.907619 52.057053 28.220625 52.275002 27.35L 55.825001 13.2C 56.036396 12.285543 55.717793 11.329727 55 10.725C 54.403061 10.096662 53.523277 9.82232 52.674999 10L 38.549999 13.6C 37.691662 13.845859 37.029598 14.530816 36.813049 15.397013C 36.5965 16.263208 36.858341 17.179142 37.5 17.799999L 39.725002 20C 39.954182 20.256231 39.954182 20.64377 39.725002 20.9L 21.725 38.775002C 21.016571 39.474834 20.617847 40.429188 20.617847 41.425003C 20.617847 42.420815 21.016571 43.375168 21.725 44.075005C 23.189089 45.53727 25.560913 45.53727 27.025002 44.075001ZM 52.975002 35.924999L 35 53.800003C 34.890667 53.917564 34.735416 53.981495 34.575001 53.974998C 34.407112 53.982254 34.243874 53.91877 34.125 53.799995L 31.900002 51.599998C 31.251823 50.936245 30.289387 50.686016 29.400002 50.949997C 28.535858 51.192383 27.867949 51.879372 27.65 52.75L 24.275 66.900002C 24.066095 67.755295 24.322489 68.657425 24.950001 69.274994C 25.415651 69.736862 26.044151 69.997238 26.699999 70C 26.907618 70.024422 27.117384 70.024422 27.325001 70.000008L 41.450001 66.474998C 42.32888 66.261581 43.023964 65.590126 43.267628 64.719147C 43.511295 63.848167 43.265549 62.913494 42.625 62.275002L 40.400002 60C 40.174294 59.751999 40.174294 59.372997 40.399998 59.125L 58.274998 41.25C 58.983429 40.550167 59.382156 39.595814 59.382156 38.600002C 59.382156 37.604187 58.983429 36.649834 58.275002 35.950001C 56.812141 34.4944 54.451523 34.483265 52.975002 35.924999Z"></path></g></g></g><g id="g-root-ic_1_144v7al1pnn6yv-fill" data-item-order="-3600" transform="translate(296, 146)"><g id="ic_1_144v7al1pnn6yv-fill" stroke="none" fill="#4e88e7"><g><path d="M 25.112499 18.6325L 39.024998 11.025C 39.78286 10.596776 40.709641 10.596776 41.467499 11.025L 55.380001 18.629999C 56.171982 19.063665 56.664577 19.894566 56.665001 20.797501L 56.665001 22.7775L 58.517498 21.74C 59.268269 21.318701 60.184231 21.318701 60.935001 21.74L 68.150002 25.790001C 69.340576 26.458399 69.764015 27.965315 69.09584 29.156019C 68.427666 30.346725 66.92083 30.770451 65.729996 30.102499L 59.724998 26.727501L 55.400002 29.15C 54.63467 29.575994 53.70108 29.565279 52.945732 29.121834C 52.19038 28.678385 51.726021 27.868399 51.725002 26.9925L 51.725002 22.264999L 40.244999 15.99L 28.77 22.264999L 28.77 26.994999C 28.769968 27.872417 28.304928 28.684097 27.548004 29.127865C 26.79108 29.57163 25.855667 29.581007 25.09 29.1525L 20.7675 26.7325L 14.7625 30.105C 13.577666 30.725822 12.113943 30.291788 11.459055 29.125439C 10.804168 27.959087 11.195613 26.483404 12.3425 25.795L 19.557499 21.744999C 20.307961 21.323412 21.223669 21.322464 21.975 21.7425L 23.825001 22.780001L 23.825001 20.800001C 23.825001 19.897501 24.32 19.065001 25.112499 18.6325ZM 39.0825 21.219999C 39.652481 20.893873 40.35252 20.893873 40.922501 21.219999L 47.842499 25.175001C 48.41906 25.504892 48.774857 26.118235 48.775002 26.782501L 48.775002 32.349998L 53.724998 34.725002L 59.145004 31.824999C 59.691566 31.532106 60.348434 31.532106 60.895 31.825001L 67.815002 35.529999C 68.417503 35.855 68.792503 36.48 68.792503 37.165001L 68.792503 44.577499C 68.793251 45.242661 68.43734 45.857166 67.860001 46.1875L 60.939999 50.142498C 60.370022 50.468632 59.669983 50.468632 59.100002 50.142502L 52.18 46.1875C 51.602665 45.857166 51.24675 45.242661 51.247501 44.577499L 51.247501 39.02L 46.2925 36.639999L 40.877499 39.540001C 40.330933 39.832893 39.674068 39.832893 39.127499 39.540001L 33.705002 36.635002L 28.7575 39.017502L 28.7575 44.577499C 28.758253 45.242661 28.402336 45.857166 27.825001 46.1875L 20.905001 50.142498C 20.334885 50.468121 19.635115 50.468121 19.065001 50.142502L 12.145 46.185001C 11.567664 45.854668 11.211748 45.240162 11.2125 44.575001L 11.2125 37.162498C 11.2125 36.48 11.5875 35.849998 12.19 35.5275L 19.110001 31.824999C 19.656567 31.532106 20.313433 31.532106 20.860001 31.825001L 26.2775 34.725002L 31.227501 32.342499L 31.227501 26.782499C 31.227636 26.117575 31.584599 25.503868 32.162502 25.175001L 39.0825 21.219999ZM 27.050001 56.497501C 28.203236 55.838692 28.629963 54.386475 28.016457 53.208511C 27.40295 52.030556 25.968407 51.547722 24.7675 52.115002L 19.5425 54.8325C 18.726679 55.2589 18.215286 56.103218 18.215286 57.02375C 18.215286 57.944283 18.726679 58.788601 19.5425 59.215004L 38.862499 69.282501C 39.579998 69.657501 40.432503 69.657501 41.147499 69.282501L 60.467499 59.215004C 61.281086 58.79055 61.792671 57.95042 61.796341 57.03278C 61.800011 56.115143 61.295162 55.27095 60.485001 54.840004L 55.359997 52.122501C 54.157696 51.510666 52.686882 51.97551 52.054562 53.167168C 51.422237 54.358822 51.861839 55.837379 53.042503 56.490002L 54.017502 57.005001L 40 64.305L 26.032501 57.024998L 27.047499 56.5ZM 40 43.407501C 41.364998 43.407501 42.4725 44.512501 42.4725 45.877499L 42.4725 49.6875L 44.505001 49.6875C 45.500153 49.686676 46.398609 50.283134 46.784149 51.200569C 47.169693 52.118011 46.96701 53.177216 46.269997 53.887501L 41.7925 58.462502C 41.326813 58.955822 40.678402 59.235413 40 59.235413C 39.321598 59.235413 38.673187 58.955822 38.2075 58.462502L 33.73 53.887501C 33.032986 53.177216 32.830307 52.118011 33.215851 51.200569C 33.601391 50.283134 34.499847 49.686676 35.494999 49.6875L 37.529999 49.6875L 37.529999 45.877499C 37.529999 44.512501 38.635002 43.407501 40 43.407501Z"></path></g></g></g><g id="g-root-ic_dete_1hdtwh91pnhk3o-fill" data-item-order="-3600" transform="translate(512, 146)"><g id="ic_dete_1hdtwh91pnhk3o-fill" stroke="none" fill="#1eabda"><g><path d="M 49.360001 39.732498L 67.985001 39.732498C 69.07 39.732498 70.630005 38.7775 69.735001 36.982502L 57.234997 11.9825C 56.735001 11.2325 55.984997 10.7325 55.235001 10.7325L 55.215 10.7325C 55.031315 10.733086 54.848942 10.763481 54.675003 10.8225C 54.125 10.9975 53.607502 11.4225 53.232498 11.9825L 44.389999 29.67L 40.732502 36.982502C 39.837502 38.7775 41.397499 39.732498 42.482498 39.732498L 49.360001 39.732498ZM 41.799999 27.860001C 40.292187 27.027897 38.643742 26.481239 36.9375 26.247499L 36.9375 38.5625L 37.375 38.5625L 37.369999 38.5075C 37.273067 37.498974 37.470165 36.483952 37.9375 35.584999L 41.799999 27.860001ZM 39.065002 41.625C 40.029682 42.414597 41.235901 42.849613 42.482498 42.857502L 49.1525 42.857498C 48.074997 48.8475 43.172501 53.709999 36.9375 54.510002L 36.9375 41.6875L 38.625 41.6875C 38.773857 41.687237 38.921955 41.666199 39.064999 41.625ZM 33.8125 26.189999L 33.8125 38.5625L 20.997501 38.5625C 21.8675 32.112499 27.3025 26.8225 33.8125 26.1875ZM 33.8125 41.6875L 20.9375 41.6875C 21.565001 48.364998 26.935001 53.93 33.8125 54.565002L 33.8125 41.6875ZM 35.125 59.625C 28.02 59.625 21.7075 62.525002 16.99 67.239998C 16.631557 67.597534 16.524176 68.135971 16.71804 68.603661C 16.911903 69.071342 17.368729 69.375908 17.875 69.375L 52.375 69.375C 52.881275 69.375908 53.338097 69.071342 53.53196 68.603661C 53.725822 68.135971 53.618439 67.597534 53.260002 67.239998C 48.5425 62.525002 42.23 59.625 35.125 59.625ZM 56.404999 28.485001L 57.280003 21.985001C 57.470001 20.577499 56.404999 19.51 55.235001 19.51C 54.064999 19.51 53 20.577499 53.1875 21.985001L 54.0625 28.485001C 54.0625 28.985001 54.650002 29.485001 55.235001 29.485001C 55.82 29.485001 56.404999 28.985001 56.404999 28.485001ZM 56.805 31.91C 56.390804 31.487276 55.82674 31.244764 55.235001 31.235001C 54.643257 31.244764 54.079193 31.487276 53.665001 31.91C 53.239231 32.324596 52.994774 32.8908 52.985001 33.485001C 52.996086 34.077457 53.240437 34.641628 53.665001 35.055C 54.078785 35.478642 54.642902 35.722076 55.235001 35.732502C 55.827972 35.722729 56.393105 35.479248 56.807499 35.055C 57.231747 34.640606 57.475235 34.07547 57.485001 33.482502C 57.474575 32.8904 57.231144 32.326283 56.807499 31.9125ZM 15.02 32.375L 15.02 24.375L 23.02 24.375C 24.400713 24.375 25.52 23.255713 25.52 21.875C 25.52 20.494287 24.400713 19.375 23.02 19.375L 15.02 19.375C 13.702499 19.375 12.41 19.825001 11.44 20.795C 10.47 21.764999 10.02 23.057501 10.02 24.375L 10.02 32.375C 10.02 33.755714 11.139288 34.875 12.52 34.875C 13.900712 34.875 15.02 33.755714 15.02 32.375ZM 15.02 46.125C 15.02 44.744289 13.900712 43.625 12.52 43.625C 11.139288 43.625 10.02 44.744289 10.02 46.125L 10.02 54.125C 10.02 55.442501 10.47 56.735001 11.44 57.705002C 12.41 58.674999 13.702499 59.125 15.02 59.125L 23.02 59.125C 24.400713 59.125 25.52 58.005711 25.52 56.625C 25.52 55.244289 24.400713 54.125 23.02 54.125L 15.02 54.125L 15.02 46.125ZM 58.484997 43.625C 59.865715 43.625 60.984997 44.744289 60.984997 46.125L 60.984997 54.125C 60.984997 55.442501 60.535004 56.735001 59.565002 57.705002C 58.595001 58.674999 57.302498 59.125 55.984997 59.125L 47.735001 59.125C 46.35429 59.125 45.235001 58.005711 45.235001 56.625C 45.235001 55.244289 46.35429 54.125 47.735001 54.125L 55.984997 54.125L 55.984997 46.125C 55.984997 44.744289 57.104286 43.625 58.484997 43.625Z"></path></g></g></g><g id="g-root-ic_2_1lwrs191pnlrt5-fill" data-item-order="-3600" transform="translate(512, 290)"><g id="ic_2_1lwrs191pnlrt5-fill" stroke="none" fill="#3cc583"><g><path d="M 62.535 17.057499C 58.4925 17.057499 55.669998 15.1875 55.669998 13.53C 55.669998 11.87 58.495003 10 62.535 10C 66.574997 10 69.380005 11.87 69.380005 13.53C 69.380005 15.1875 66.574997 17.057499 62.535 17.057499ZM 41.310001 19.25C 41.310001 17.869287 42.429287 16.75 43.810001 16.75L 48.342499 16.75C 49.723213 16.75 50.842499 17.869287 50.842499 19.25C 50.842499 20.630711 49.723213 21.75 48.342499 21.75L 46.310001 21.75L 46.310001 37.5L 48.342499 37.5C 49.723213 37.5 50.842499 38.619286 50.842499 40C 50.842499 41.380714 49.723213 42.5 48.342499 42.5L 46.310001 42.5L 46.310001 58.25L 48.342499 58.25C 49.723213 58.25 50.842499 59.369286 50.842499 60.75C 50.842499 62.130714 49.723213 63.25 48.342499 63.25L 43.810001 63.25C 42.429287 63.25 41.310001 62.130714 41.310001 60.75L 41.310001 42.5L 38.150002 42.5C 36.769287 42.5 35.650002 41.380714 35.650002 40C 35.650002 38.619286 36.769287 37.5 38.150002 37.5L 41.3125 37.5L 41.3125 19.25ZM 31.440001 49.762501C 31.440001 51.904999 26.747499 53.647499 20.98 53.647499C 15.21 53.647499 10.52 51.904999 10.52 49.762501L 10.52 45.130001C 10.52 45.02 10.545 44.915001 10.5925 44.817501C 10.63616 44.724419 10.701276 44.643024 10.7825 44.579998C 10.961685 44.482178 11.178314 44.482178 11.3575 44.579998C 14.368936 45.971153 17.664722 46.636475 20.98 46.522499C 24.295277 46.636475 27.591064 45.971153 30.602501 44.579998C 30.781029 44.483086 30.996471 44.483086 31.174999 44.579998C 31.257135 44.642735 31.323128 44.724152 31.367496 44.817497C 31.412922 44.915565 31.437603 45.021954 31.440001 45.130001L 31.440001 49.762501ZM 20.98 43.884998C 26.747499 43.884998 31.440001 42.142502 31.440001 40L 31.440001 35.364998C 31.43775 35.257454 31.412161 35.15168 31.364998 35.055C 31.321339 34.961922 31.256222 34.880527 31.174999 34.817497C 30.999096 34.707573 30.775906 34.707573 30.599998 34.817501C 27.585529 36.196625 24.293419 36.861378 20.98 36.760002C 17.664904 36.862152 14.370996 36.19738 11.355 34.817501C 11.1797 34.708611 10.9578 34.708611 10.7825 34.817501C 10.701276 34.880527 10.63616 34.961922 10.5925 35.055C 10.54534 35.15168 10.51975 35.257454 10.5175 35.364998L 10.5175 40C 10.5175 42.142502 15.21 43.884998 20.98 43.884998ZM 31.440001 30.235001C 31.440001 32.3825 26.755001 34.119999 20.98 34.119999C 15.2025 34.119999 10.52 32.3825 10.52 30.237501C 10.52 28.092501 15.2 26.35 20.98 26.35C 26.755001 26.35 31.440001 28.09 31.440001 30.235001ZM 69.380005 18.3825C 69.378174 18.224136 69.291374 18.078974 69.152733 18.002411C 69.014099 17.92585 68.845001 17.929703 68.709999 18.012501C 66.836235 19.098019 64.699982 19.647217 62.535004 19.6C 60.36969 19.650068 58.232681 19.100674 56.359997 18.012501C 56.216892 17.933302 56.043106 17.933302 55.899998 18.012501C 55.760986 18.092699 55.67382 18.239555 55.669998 18.4L 55.669998 24.1175C 55.669998 25.775 58.495003 27.647499 62.535 27.647499C 66.574997 27.647499 69.380005 25.8825 69.380005 24.1175L 69.380005 18.3825ZM 69.317497 39.3325C 69.357361 39.39904 69.378922 39.474937 69.379997 39.552498L 69.380005 45.287498C 69.380005 47.052502 66.574997 48.817501 62.535 48.817501C 58.4925 48.817501 55.669998 46.945 55.669998 45.287498L 55.669998 39.57C 55.67382 39.409554 55.760986 39.262699 55.900002 39.182499C 56.042572 39.104687 56.214924 39.104687 56.357498 39.182499C 58.232498 40.27 60.3675 40.82 62.532501 40.77C 64.698631 40.817562 66.835999 40.267437 68.709999 39.18C 68.81028 39.11866 68.930939 39.100002 69.045059 39.128181C 69.159187 39.156357 69.257294 39.229034 69.317497 39.329998ZM 69.380005 60.735001C 69.378174 60.576633 69.291374 60.431473 69.152733 60.354912C 69.014099 60.278351 68.845001 60.282204 68.709999 60.364998C 66.836235 61.45052 64.699982 61.999718 62.535004 61.952499C 60.36969 62.002567 58.232681 61.453171 56.359997 60.364998C 56.21677 60.286274 56.043228 60.286274 55.899998 60.364998C 55.760986 60.445198 55.67382 60.592056 55.669998 60.752502L 55.669998 66.470001C 55.669998 68.130005 58.495003 70 62.535 70C 66.574997 70 69.380005 68.235001 69.380005 66.470001L 69.380005 60.735001ZM 55.669998 34.700001C 55.669998 36.357502 58.495003 38.227501 62.535 38.227501C 66.574997 38.227501 69.380005 36.357502 69.380005 34.700001C 69.380005 33.040001 66.574997 31.170002 62.535 31.170002C 58.4925 31.170002 55.669998 33.040001 55.669998 34.700001ZM 62.535 59.412498C 58.4925 59.412498 55.669998 57.5425 55.669998 55.8825C 55.669998 54.225002 58.495003 52.352501 62.535 52.352501C 66.574997 52.352501 69.380005 54.225002 69.380005 55.8825C 69.380005 57.5425 66.574997 59.412498 62.535 59.412498Z"></path></g></g></g><g id="g-root-ic_shar_zk1wh91pnrcp9-fill" data-item-order="-3600" transform="translate(296, 290)"><g id="ic_shar_zk1wh91pnrcp9-fill" stroke="none" fill="#92bd39"><g><path d="M 10.875 12.925C 10.875 11.544288 11.994288 10.425 13.375 10.425L 30.875 10.425C 32.255711 10.425 33.375 11.544288 33.375 12.925L 33.375 67.074997C 33.375 68.455711 32.255711 69.574997 30.875 69.574997L 13.375 69.574997C 11.994288 69.574997 10.875 68.455711 10.875 67.074997L 10.875 12.925ZM 15.875 51.525002L 15.875 64.574997L 28.375 64.574997L 28.375 51.525002L 15.875 51.525002ZM 28.375 46.524998L 15.875 46.524998L 15.875 33.475002L 28.375 33.475002L 28.375 46.524998ZM 28.375 15.425L 28.375 28.475L 15.875 28.475L 15.875 15.425L 28.375 15.425ZM 37.125 40C 37.125 38.619286 38.244289 37.5 39.625 37.5L 45.375 37.5L 45.375 33.75C 45.375217 32.73901 45.984318 31.827663 46.918365 31.440804C 47.852409 31.053946 48.927513 31.267731 49.642502 31.9825L 55.892502 38.232502C 56.36364 38.700005 56.628632 39.336269 56.628632 40C 56.628632 40.663727 56.36364 41.299992 55.892502 41.767498L 49.642502 48.017498C 48.927513 48.732269 47.852409 48.946053 46.918365 48.559196C 45.984318 48.172337 45.375217 47.26099 45.375 46.25L 45.375 42.5L 39.625 42.5C 38.244289 42.5 37.125 41.380714 37.125 40ZM 65.232498 22.5C 66.613213 22.5 67.732498 23.619287 67.732498 25L 67.732498 43.75C 67.732498 45.130714 66.613213 46.25 65.232498 46.25C 63.851791 46.25 62.732502 45.130714 62.732502 43.75L 62.732502 25C 62.732502 23.619287 63.851791 22.5 65.232498 22.5ZM 68.322502 52.942501C 68.354507 54.06786 67.772415 55.121704 66.802811 55.693825C 65.833206 56.265949 64.629288 56.265949 63.659687 55.693825C 62.690083 55.121704 62.107994 54.06786 62.139999 52.942501C 62.18758 51.269474 63.557549 49.93792 65.231247 49.93792C 66.904953 49.93792 68.27491 51.269474 68.322495 52.942501Z"></path></g></g></g><g id="g-root-tx_ensemble_4kfu7h1pnu5fr-fill" data-item-order="0" transform="translate(674, 272)"><g id="tx_ensemble_4kfu7h1pnu5fr-fill" stroke="none" fill="#3cc583"><g><text style="font: bold 20px &quot;Shantell Sans&quot;, cursive; white-space: pre;" font-weight="bold" font-size="20px" font-family="'Shantell Sans', cursive"><tspan x="12" y="35.5" dominant-baseline="ideographic">Ensemble </tspan><tspan x="12" y="59.5" dominant-baseline="ideographic">Training Phase</tspan></text></g></g></g><g id="g-root-tx_outputpr_18hkf591pnu70h-fill" data-item-order="0" transform="translate(14, 272)"><g id="tx_outputpr_18hkf591pnu70h-fill" stroke="none" fill="#92bd39"><g><text style="font: bold 20px &quot;Shantell Sans&quot;, cursive; white-space: pre;" font-weight="bold" font-size="20px" font-family="'Shantell Sans', cursive"><tspan x="116.48" y="35.5" dominant-baseline="ideographic">Output </tspan><tspan x="12.94" y="59.5" dominant-baseline="ideographic">Prediction Phase</tspan></text></g></g></g><g id="g-root-tx_features_m97yct1pnu77o-fill" data-item-order="0" transform="translate(14, 200)"><g id="tx_features_m97yct1pnu77o-fill" stroke="none" fill="#484848"><g><text style="font: 15px &quot;Shantell Sans&quot;, cursive; white-space: pre;" font-size="15px" font-family="'Shantell Sans', cursive"><tspan x="20.24" y="29" dominant-baseline="ideographic">Feature Selection using </tspan><tspan x="159.91" y="47" dominant-baseline="ideographic">RFE</tspan></text></g></g></g><g id="g-root-tx_softmaxa_zlxewd1pnu7t6-fill" data-item-order="0" transform="translate(26, 332)"><g id="tx_softmaxa_zlxewd1pnu7t6-fill" stroke="none" fill="#484848"><g><text style="font: 15px &quot;Shantell Sans&quot;, cursive; white-space: pre;" font-size="15px" font-family="'Shantell Sans', cursive"><tspan x="23.74" y="29" dominant-baseline="ideographic">Softmax Activation &amp; </tspan><tspan x="19.58" y="47" dominant-baseline="ideographic">Probability Averaging</tspan></text></g></g></g><g id="g-root-tx_finalcla_4mc311pnu682-fill" data-item-order="0" transform="translate(674, 476.0001220703125)"><g id="tx_finalcla_4mc311pnu682-fill" stroke="none" fill="#484848"><g><text style="font: 15px &quot;Shantell Sans&quot;, cursive; white-space: pre;" font-size="15px" font-family="'Shantell Sans', cursive"><tspan x="12" y="29" dominant-baseline="ideographic">Final Classification </tspan><tspan x="12" y="47" dominant-baseline="ideographic">Output</tspan></text></g></g></g><g id="g-root-tx_missingv_v6qdv11pnu5fq-fill" data-item-order="0" transform="translate(674, 182)"><g id="tx_missingv_v6qdv11pnu5fq-fill" stroke="none" fill="#484848"><g><text style="font: 15px &quot;Shantell Sans&quot;, cursive; white-space: pre;" font-size="15px" font-family="'Shantell Sans', cursive"><tspan x="12" y="29" dominant-baseline="ideographic">Missing Value </tspan><tspan x="12" y="47" dominant-baseline="ideographic">Imputation &amp; </tspan><tspan x="12" y="65" dominant-baseline="ideographic">Categorical Feature </tspan><tspan x="12" y="83" dominant-baseline="ideographic">Detection</tspan></text></g></g></g><g id="g-root-tx_outputpr_zlxewd1pnu7t7-fill" data-item-order="0" transform="translate(14, 416.0001220703125)"><g id="tx_outputpr_zlxewd1pnu7t7-fill" stroke="none" fill="#e0cb15"><g><text style="font: bold 20px &quot;Shantell Sans&quot;, cursive; white-space: pre;" font-weight="bold" font-size="20px" font-family="'Shantell Sans', cursive"><tspan x="116.48" y="35.5" dominant-baseline="ideographic">Output </tspan><tspan x="12.94" y="59.5" dominant-baseline="ideographic">Prediction Phase</tspan></text></g></g></g><g id="g-root-tx_dataprep_qp1gh91pnu6ff-fill" data-item-order="0" transform="translate(38, 116)"><g id="tx_dataprep_qp1gh91pnu6ff-fill" stroke="none" fill="#4e88e7"><g><text style="font: bold 20px &quot;Shantell Sans&quot;, cursive; white-space: pre;" font-weight="bold" font-size="20px" font-family="'Shantell Sans', cursive"><tspan x="113.58" y="35.5" dominant-baseline="ideographic">Data </tspan><tspan x="18.77" y="59.5" dominant-baseline="ideographic">Preprocessing </tspan><tspan x="104.34" y="83.5" dominant-baseline="ideographic">Stage</tspan></text></g></g></g><g id="g-root-tx_outputpr_4mc311pnu681-fill" data-item-order="0" transform="translate(674, 416.0001220703125)"><g id="tx_outputpr_4mc311pnu681-fill" stroke="none" fill="#de8431"><g><text style="font: bold 20px &quot;Shantell Sans&quot;, cursive; white-space: pre;" font-weight="bold" font-size="20px" font-family="'Shantell Sans', cursive"><tspan x="12" y="35.5" dominant-baseline="ideographic">Output </tspan><tspan x="12" y="59.5" dominant-baseline="ideographic">Prediction Phase</tspan></text></g></g></g><g id="g-root-tx_dataprep_v6qdv11pnu5fp-fill" data-item-order="0" transform="translate(674, 98)"><g id="tx_dataprep_v6qdv11pnu5fp-fill" stroke="none" fill="#1eabda"><g><text style="font: bold 20px &quot;Shantell Sans&quot;, cursive; white-space: pre;" font-weight="bold" font-size="20px" font-family="'Shantell Sans', cursive"><tspan x="12" y="35.5" dominant-baseline="ideographic">Data </tspan><tspan x="12" y="59.5" dominant-baseline="ideographic">Preprocessing </tspan><tspan x="12" y="83.5" dominant-baseline="ideographic">Stage</tspan></text></g></g></g><g id="g-root-tx_structur_18kopf11pnn66m-fill" data-item-order="0" transform="translate(230, 38)"><g id="tx_structur_18kopf11pnn66m-fill" stroke="none" fill="#484848"><g><text style="font: bold 25px &quot;Shantell Sans&quot;, cursive; white-space: pre;" font-weight="bold" font-size="25px" font-family="'Shantell Sans', cursive"><tspan x="15.75" y="44.5" dominant-baseline="ideographic">Structured Pipeline for PANDA</tspan></text></g></g></g><g id="g-root-tx_classimb_zlxewd1pnu7t8-fill" data-item-order="0" transform="translate(62, 476.0001220703125)"><g id="tx_classimb_zlxewd1pnu7t8-fill" stroke="none" fill="#484848"><g><text style="font: 15px &quot;Shantell Sans&quot;, cursive; white-space: pre;" font-size="15px" font-family="'Shantell Sans', cursive"><tspan x="19.93" y="29" dominant-baseline="ideographic">Class Imbalance </tspan><tspan x="56.88" y="47" dominant-baseline="ideographic">Adjustment</tspan></text></g></g></g><g id="g-root-tx_parallel_4kfu7h1pnu5fs-fill" data-item-order="0" transform="translate(674, 332)"><g id="tx_parallel_4kfu7h1pnu5fs-fill" stroke="none" fill="#484848"><g><text style="font: 15px &quot;Shantell Sans&quot;, cursive; white-space: pre;" font-size="15px" font-family="'Shantell Sans', cursive"><tspan x="12" y="29" dominant-baseline="ideographic">Parallel Training of 64 </tspan><tspan x="12" y="47" dominant-baseline="ideographic">Model Variants</tspan></text></g></g></g><g id="g-root-cp_6_g-6_1qbc8tp1pnn6yy-stroke" data-item-order="-495590" transform="translate(434, 416.0001220703125)"><g id="cp_6_g-6_1qbc8tp1pnn6yy-stroke" fill="none" stroke-linecap="round" stroke-linejoin="round" stroke-miterlimit="4" stroke="#ffffff" stroke-width="2"><g><path d="M 10 10L 105 10C 174.0356 10 226.0001 60.9644 226.0001 130L 250 130L 178 209.5L 106 130L 130 130C 130 116.1929 118.8071 106.0001 105 106L 10 106L 10 10Z"></path></g></g></g><g id="g-root-cp_5_g-5_1lw57sd1pnn4lg-stroke" data-item-order="-495586" transform="translate(218, 392.0001220703125)"><g id="cp_5_g-5_1lw57sd1pnn4lg-stroke" fill="none" stroke-linecap="round" stroke-linejoin="round" stroke-miterlimit="4" stroke="#ffffff" stroke-width="2"><g><path d="M 226.0001 130L 131.0001 130C 61.9645 130 10 79.0356 10 10L 106.0001 10C 106.0001 23.8071 117.1931 33.9999 131.0001 34L 226.0001 34L 226.0001 130Z"></path></g></g></g><g id="g-root-cp_4_g-4_1lw57sd1pnn4li-stroke" data-item-order="-495582" transform="translate(218, 272)"><g id="cp_4_g-4_1lw57sd1pnn4li-stroke" fill="none" stroke-linecap="round" stroke-linejoin="round" stroke-miterlimit="4" stroke="#ffffff" stroke-width="2"><g><path d="M 226.0001 10L 131.0001 10C 61.9645 10 10 60.9644 10 130L 106.0001 130C 106.0001 116.1929 117.1931 106.0001 131.0001 106L 226.0001 106L 226.0001 10Z"></path></g></g></g><g id="g-root-cp_3_g-3_1lw57sd1pnn4lk-stroke" data-item-order="-495578" transform="translate(434, 248)"><g id="cp_3_g-3_1lw57sd1pnn4lk-stroke" fill="none" stroke-linecap="round" stroke-linejoin="round" stroke-miterlimit="4" stroke="#ffffff" stroke-width="2"><g><path d="M 10 130L 105 130C 174.0356 130 226.0001 79.0356 226.0001 10L 130 10C 130 23.8071 118.8071 33.9999 105 34L 10 34L 10 130Z"></path></g></g></g><g id="g-root-cp_2_g-2_1hgbpnx1pnn5du-stroke" data-item-order="-495574" transform="translate(434, 128)"><g id="cp_2_g-2_1hgbpnx1pnn5du-stroke" fill="none" stroke-linecap="round" stroke-linejoin="round" stroke-miterlimit="4" stroke="#ffffff" stroke-width="2"><g><path d="M 10 10L 105 10C 174.0356 10 226.0001 60.9644 226.0001 130L 130 130C 130 116.1929 118.8071 106.0001 105 106L 10 106L 10 10Z"></path></g></g></g><g id="g-root-cp_1_g-1_1hgbpnx1pnn5dw-stroke" data-item-order="-495570" transform="translate(218, 128)"><g id="cp_1_g-1_1hgbpnx1pnn5dw-stroke" fill="none" stroke-linecap="round" stroke-linejoin="round" stroke-miterlimit="4" stroke="#ffffff" stroke-width="2"><g><path d="M 10 10L 226 10L 226 106L 10 106L 10 10Z"></path></g></g></g><g id="g-root-ic_soil_dfgdd91pnpyx6-stroke" data-item-order="-3600" transform="translate(512, 434.0001220703125)"></g><g id="g-root-ic_scal_1luwcrx1pnerk6-stroke" data-item-order="-3600" transform="translate(296, 434.0001220703125)"></g><g id="g-root-ic_1_144v7al1pnn6yv-stroke" data-item-order="-3600" transform="translate(296, 146)"></g><g id="g-root-ic_dete_1hdtwh91pnhk3o-stroke" data-item-order="-3600" transform="translate(512, 146)"></g><g id="g-root-ic_2_1lwrs191pnlrt5-stroke" data-item-order="-3600" transform="translate(512, 290)"></g><g id="g-root-ic_shar_zk1wh91pnrcp9-stroke" data-item-order="-3600" transform="translate(296, 290)"></g><g id="g-root-tx_ensemble_4kfu7h1pnu5fr-stroke" data-item-order="0" transform="translate(674, 272)"></g><g id="g-root-tx_outputpr_18hkf591pnu70h-stroke" data-item-order="0" transform="translate(14, 272)"></g><g id="g-root-tx_features_m97yct1pnu77o-stroke" data-item-order="0" transform="translate(14, 200)"></g><g id="g-root-tx_softmaxa_zlxewd1pnu7t6-stroke" data-item-order="0" transform="translate(26, 332)"></g><g id="g-root-tx_finalcla_4mc311pnu682-stroke" data-item-order="0" transform="translate(674, 476.0001220703125)"></g><g id="g-root-tx_missingv_v6qdv11pnu5fq-stroke" data-item-order="0" transform="translate(674, 182)"></g><g id="g-root-tx_outputpr_zlxewd1pnu7t7-stroke" data-item-order="0" transform="translate(14, 416.0001220703125)"></g><g id="g-root-tx_dataprep_qp1gh91pnu6ff-stroke" data-item-order="0" transform="translate(38, 116)"></g><g id="g-root-tx_outputpr_4mc311pnu681-stroke" data-item-order="0" transform="translate(674, 416.0001220703125)"></g><g id="g-root-tx_dataprep_v6qdv11pnu5fp-stroke" data-item-order="0" transform="translate(674, 98)"></g><g id="g-root-tx_structur_18kopf11pnn66m-stroke" data-item-order="0" transform="translate(230, 38)"></g><g id="g-root-tx_classimb_zlxewd1pnu7t8-stroke" data-item-order="0" transform="translate(62, 476.0001220703125)"></g><g id="g-root-tx_parallel_4kfu7h1pnu5fs-stroke" data-item-order="0" transform="translate(674, 332)"></g></g></g></svg>